<svg width="24" height="24" viewBox="0 0 24 24" fill="none" xmlns="http://www.w3.org/2000/svg">
<path d="M7.64352 7.32703C7.64352 8.50673 8.10476 9.86824 8.87729 10.9692C9.75432 12.219 10.8633 12.9073 11.9998 12.9073C13.1364 12.9073 14.2453 12.219 15.1223 10.9692C15.8948 9.86824 16.3561 8.50668 16.3561 7.32703C16.3561 4.92497 14.4019 2.97078 11.9998 2.97078C9.59777 2.97078 7.64352 4.92497 7.64352 7.32703ZM11.9998 3.72732C13.9847 3.72732 15.5995 5.34218 15.5995 7.32703C15.5995 8.3417 15.1794 9.57077 14.5031 10.5347C13.7823 11.5617 12.8699 12.1508 11.9998 12.1508C11.1297 12.1508 10.2173 11.5617 9.49659 10.5347C8.82025 9.57082 8.40006 8.34175 8.40006 7.32703C8.40006 5.34213 10.0149 3.72732 11.9998 3.72732Z" fill="white"/>
<path d="M15.2504 12.0626C15.1061 11.9939 14.934 12.0234 14.8207 12.1363C13.9746 12.98 12.9991 13.4259 11.9996 13.4259C10.9999 13.4259 10.0246 12.98 9.17904 12.1364C9.06576 12.0234 8.89362 11.9939 8.74928 12.0626C7.47556 12.669 6.39755 13.6175 5.63178 14.8057C4.84518 16.0263 4.42938 17.4424 4.42938 18.9009V18.907C4.42938 19.0137 4.47447 19.1155 4.55351 19.1872C6.59576 21.0393 9.24012 22.0593 11.9995 22.0593C14.7589 22.0593 17.4033 21.0393 19.4455 19.1872C19.5246 19.1155 19.5697 19.0138 19.5697 18.907V18.9009C19.5697 17.4424 19.154 16.0263 18.3676 14.8058C17.602 13.6175 16.5241 12.6689 15.2504 12.0626ZM11.9996 21.3027C9.48483 21.3027 7.07278 20.3937 5.18789 18.7392C5.21729 17.4836 5.58916 16.2686 6.26777 15.2155C6.91038 14.2184 7.79709 13.4088 8.84293 12.8614C9.78841 13.7267 10.8747 14.1824 11.9996 14.1824C13.1243 14.1824 14.2108 13.7268 15.1568 12.8614C16.2026 13.4088 17.0892 14.2184 17.7317 15.2155C18.4102 16.2685 18.782 17.4835 18.8114 18.7392C16.9264 20.3937 14.5144 21.3027 11.9996 21.3027Z" fill="white"/>
<path d="M22.9523 12.3008C22.285 11.2653 21.3456 10.4386 20.2356 9.91021C20.0912 9.84147 19.9191 9.87097 19.8059 9.9839C19.084 10.7037 18.2529 11.0842 17.4024 11.0842C16.9413 11.0842 16.4853 10.9729 16.047 10.7537C15.8601 10.6602 15.633 10.7358 15.5395 10.9227C15.446 11.1095 15.5216 11.3367 15.7085 11.4302C16.2528 11.7026 16.8228 11.8407 17.4024 11.8407C18.3776 11.8407 19.3192 11.4505 20.1405 10.7091C21.0233 11.178 21.772 11.8658 22.3164 12.7106C22.8936 13.6065 23.2119 14.6394 23.2412 15.7073C22.307 16.5223 21.1959 17.1422 20.0179 17.5046C19.8182 17.566 19.7061 17.7777 19.7675 17.9773C19.8176 18.14 19.9672 18.2445 20.1289 18.2445C20.1658 18.2445 20.2033 18.2391 20.2403 18.2277C21.5773 17.8165 22.8345 17.0999 23.8758 16.1554C23.9549 16.0837 24 15.9819 24 15.8752V15.8699C24 14.5987 23.6376 13.3645 22.9523 12.3008Z" fill="white"/>
<path d="M6.58154 10.6154C6.98149 10.6154 7.38049 10.5179 7.76759 10.3255C7.95466 10.2325 8.03097 10.0055 7.93801 9.81842C7.84506 9.6313 7.618 9.55504 7.43093 9.648C7.1494 9.7879 6.86362 9.85882 6.58154 9.85882C5.84815 9.85882 5.07673 9.3588 4.46504 8.48696C3.8876 7.66394 3.52885 6.61518 3.52885 5.75C3.52885 4.0667 4.89829 2.69726 6.58154 2.69726C7.376 2.69726 8.12841 3.00099 8.70015 3.55256C8.85045 3.69756 9.08997 3.69337 9.23497 3.54297C9.38003 3.39262 9.37574 3.15315 9.22539 3.00815C8.51192 2.31985 7.57296 1.94077 6.58154 1.94077C4.48108 1.94077 2.77231 3.64959 2.77231 5.75005C2.77231 6.77794 3.17363 7.96353 3.84574 8.92152C4.61211 10.0138 5.58371 10.6154 6.58154 10.6154Z" fill="white"/>
<path d="M3.07831 17.1554C2.23335 16.7912 1.45382 16.2994 0.758809 15.6926C0.788163 14.6278 1.10556 13.598 1.68133 12.7046C2.22407 11.8624 2.97053 11.1767 3.85058 10.7091C4.66961 11.4486 5.60858 11.8376 6.58114 11.8376C7.16554 11.8376 7.7396 11.6972 8.28733 11.4202C8.47374 11.3258 8.54844 11.0983 8.45417 10.9119C8.35991 10.7254 8.13234 10.6508 7.94588 10.745C7.50497 10.968 7.0458 11.0811 6.58114 11.0811C5.73326 11.0811 4.90475 10.7017 4.18523 9.9839C4.07195 9.87092 3.89986 9.84142 3.75546 9.91016C2.64819 10.4373 1.71109 11.2618 1.04539 12.2948C0.361474 13.356 0 14.5871 0 15.8551V15.8603C0 15.9671 0.0450897 16.0688 0.124123 16.1406C0.912386 16.8554 1.80556 17.4307 2.77877 17.8502C2.82759 17.8712 2.87838 17.8812 2.92836 17.8812C3.07483 17.8812 3.21423 17.7956 3.27592 17.6526C3.35858 17.4607 3.27012 17.2382 3.07831 17.1554Z" fill="white"/>
<path d="M3.52315 17.7032C3.38843 18.0281 3.75173 18.3504 4.05863 18.1766C4.22194 18.0841 4.29482 17.8772 4.22139 17.7033C4.09999 17.3934 3.64752 17.4031 3.52315 17.7032Z" fill="white"/>
<path d="M4.22138 17.7033C4.23096 17.726 4.2123 17.68 4.22138 17.7033V17.7033Z" fill="white"/>
<path d="M15.2995 3.55261C15.8712 3.00104 16.6236 2.69732 17.4181 2.69732C19.1013 2.69732 20.4708 4.06676 20.4708 5.75006C20.4708 6.61524 20.1121 7.66395 19.5345 8.48702C18.9228 9.35886 18.1514 9.85888 17.418 9.85888C17.136 9.85888 16.8502 9.78797 16.5687 9.64806C16.3815 9.55505 16.1545 9.63136 16.0615 9.81848C15.9686 10.0055 16.0449 10.2326 16.2319 10.3256C16.619 10.5179 17.0181 10.6155 17.418 10.6155C18.4158 10.6155 19.3875 10.0139 20.1538 8.92158C20.826 7.96359 21.2273 6.77799 21.2273 5.75011C21.2273 3.64965 19.5184 1.94083 17.418 1.94083C16.4266 1.94083 15.4877 2.3199 14.7742 3.0082C14.6238 3.15321 14.6196 3.39273 14.7646 3.54303C14.9096 3.69338 15.1491 3.69766 15.2995 3.55261Z" fill="white"/>
</svg>
