<svg width="24" height="24" viewBox="0 0 24 24" fill="none" xmlns="http://www.w3.org/2000/svg">
<path d="M20.4896 20.4896C25.1701 15.8091 25.1701 8.19094 20.4896 3.5104C15.8091 -1.17013 8.19094 -1.17013 3.5104 3.5104C-1.17013 8.19094 -1.17013 15.8091 3.5104 20.4896C8.19094 25.1701 15.8091 25.1701 20.4896 20.4896ZM4.3574 4.3574C8.57283 0.141983 15.4272 0.141983 19.6426 4.3574C23.858 8.57283 23.858 15.4272 19.6426 19.6426C15.4272 23.858 8.57283 23.858 4.3574 19.6426C0.141983 15.4272 0.146879 8.57283 4.3574 4.3574Z" fill="white"/>
<path d="M12 16.4945C12.1665 16.4945 12.3134 16.4259 12.426 16.3182C12.5337 16.2105 12.6022 16.0587 12.6022 15.8923V12.5973H15.8972C16.0637 12.5973 16.2105 12.5288 16.3231 12.421C16.4309 12.3133 16.4994 12.1616 16.4994 11.9951C16.4994 11.6622 16.2301 11.3929 15.9021 11.3978H12.6071V8.10281C12.6071 7.76989 12.3378 7.50061 12.0098 7.50551C11.6769 7.50551 11.4076 7.77478 11.4125 8.10281V11.3978H8.11751C7.78459 11.3978 7.51531 11.6671 7.52021 11.9951C7.52021 12.328 7.78949 12.5973 8.11751 12.5924H11.4125V15.8874C11.3978 16.2252 11.6671 16.4945 12 16.4945Z" fill="white"/>
</svg>
