<svg width="24" height="24" viewBox="0 0 24 24" fill="none" xmlns="http://www.w3.org/2000/svg">
<path d="M7.64352 7.32703C7.64352 8.50673 8.10476 9.86824 8.87729 10.9692C9.75432 12.219 10.8633 12.9073 11.9998 12.9073C13.1364 12.9073 14.2453 12.219 15.1223 10.9692C15.8948 9.86824 16.3561 8.50668 16.3561 7.32703C16.3561 4.92497 14.4019 2.97078 11.9998 2.97078C9.59777 2.97078 7.64352 4.92497 7.64352 7.32703ZM11.9998 3.72732C13.9847 3.72732 15.5995 5.34218 15.5995 7.32703C15.5995 8.3417 15.1794 9.57077 14.5031 10.5347C13.7823 11.5617 12.8699 12.1508 11.9998 12.1508C11.1297 12.1508 10.2173 11.5617 9.49659 10.5347C8.82025 9.57082 8.40006 8.34175 8.40006 7.32703C8.40006 5.34213 10.0149 3.72732 11.9998 3.72732Z" fill="white"/>
<path d="M15.2504 12.0626C15.1061 11.9939 14.934 12.0234 14.8207 12.1363C13.9746 12.98 12.9991 13.4259 11.9996 13.4259C10.9999 13.4259 10.0246 12.98 9.17904 12.1364C9.06576 12.0234 8.89362 11.9939 8.74928 12.0626C7.47556 12.669 6.39755 13.6175 5.63178 14.8057C4.84518 16.0263 4.42938 17.4424 4.42938 18.9009V18.907C4.42938 19.0137 4.47447 19.1155 4.55351 19.1872C6.59576 21.0393 9.24012 22.0593 11.9995 22.0593C14.7589 22.0593 17.4033 21.0393 19.4455 19.1872C19.5246 19.1155 19.5697 19.0138 19.5697 18.907V18.9009C19.5697 17.4424 19.154 16.0263 18.3676 14.8058C17.602 13.6175 16.5241 12.6689 15.2504 12.0626ZM11.9996 21.3027C9.48483 21.3027 7.07278 20.3937 5.18789 18.7392C5.21729 17.4836 5.58916 16.2686 6.26777 15.2155C6.91038 14.2184 7.79709 13.4088 8.84293 12.8614C9.78841 13.7267 10.8747 14.1825 11.9996 14.1825C13.1243 14.1825 14.2108 13.7268 15.1568 12.8614C16.2026 13.4088 17.0892 14.2184 17.7317 15.2155C18.4102 16.2685 18.782 17.4835 18.8114 18.7392C16.9264 20.3937 14.5144 21.3027 11.9996 21.3027Z" fill="white"/>
</svg>