<svg width="60" height="60" viewBox="0 0 60 60" fill="none" xmlns="http://www.w3.org/2000/svg">
<path d="M31.887 14.5434V9.2856H28.1155V14.5085C16.0484 16.414 7.68994 25.6274 7.68994 37.1564C7.68994 37.401 7.71557 37.6386 7.72256 37.8832H7.68994V39.2646H7.78312C8.70563 49.757 16.5306 57.8149 27.6356 59.7065C27.6356 59.7065 28.1248 59.8253 29.5645 59.9767C30.7782 60.0652 31.4701 59.8719 31.4701 59.8719C42.9454 58.367 51.262 50.1134 52.2147 39.2646H52.266V38.1767C52.2753 37.8366 52.3079 37.5012 52.3079 37.1564C52.3103 25.5715 43.8353 16.3535 31.887 14.5434ZM29.3082 16.2673V23.9175C26.4708 23.9152 23.8757 24.232 21.5508 24.7282C24.4208 20.3184 27.9524 17.3296 29.3082 16.2673ZM26.7317 16.1671C24.6142 18.1496 21.6766 21.2083 19.4099 25.2454C15.494 26.3263 12.5284 27.8382 10.7463 28.9098C13.4416 22.578 19.2212 17.8281 26.7317 16.1671ZM9.06904 37.1564C9.06904 35.0272 9.39285 32.9888 9.96825 31.06C10.8721 30.4077 13.8889 28.3949 18.541 26.9227C17.3343 29.4479 16.4211 32.2946 16.1206 35.4675C16.1206 35.4978 16.1159 35.5257 16.1113 35.556C16.0414 36.3131 15.9971 37.0819 16.0018 37.8762C16.0018 37.8786 16.0018 37.8786 16.0018 37.8809H9.09932C9.09466 37.6386 9.06904 37.401 9.06904 37.1564ZM10.3526 44.5085C11.9833 45.5265 14.8626 47.0733 18.746 48.2241C20.598 51.5554 23.4284 54.8261 27.3863 58.2715C19.156 56.7177 12.9105 51.5414 10.3526 44.5085ZM29.3106 57.9384C25.4924 54.8237 22.6667 51.807 20.7191 48.7529C23.2444 49.3516 26.1051 49.7523 29.2733 49.7523C29.2873 49.7523 29.3012 49.7523 29.3106 49.7523V57.9384ZM29.3129 48.3639C25.6858 48.3685 22.4663 47.8351 19.7384 47.0803C18.3966 44.5434 17.6418 41.9646 17.4415 39.2646H29.3129V48.3639V48.3639ZM49.4612 29.2522C45.9715 27.4072 42.6263 26.1236 39.4651 25.2827C38.687 23.9036 37.846 22.6246 36.9771 21.4762C35.3488 19.2398 33.6342 17.3785 32.1992 15.9738C40.4505 17.3598 46.7473 22.3381 49.4612 29.2522ZM30.692 25.3129C33.1217 25.4108 35.7238 25.7649 38.4727 26.4498C39.733 28.8212 40.744 31.4536 41.2169 34.2957C41.2262 34.3819 41.2356 34.4681 41.2495 34.5543C41.3241 35.0318 41.387 35.5117 41.4266 36.0009C41.4755 36.6183 41.5081 37.2403 41.5034 37.8809H30.692V25.3129V25.3129ZM30.6896 39.2623H41.4429C41.3217 40.9023 41.0096 42.5167 40.5017 44.1078C40.4551 44.2313 40.4249 44.357 40.3783 44.4782C40.3387 44.5993 40.2897 44.7205 40.2455 44.8416C39.9753 45.5684 39.6328 46.2859 39.2624 47.0034C36.2223 47.8258 33.3523 48.2381 30.6896 48.3406C30.6896 48.3406 30.6896 39.2623 30.6896 39.2623ZM30.6943 57.1649V49.708C33.0868 49.6195 35.6353 49.291 38.3236 48.6574C36.5788 51.4436 34.0861 54.2134 30.6943 57.1649ZM32.0222 58.381C35.7611 55.0544 38.496 51.6532 40.2944 48.1426C43.2925 47.2806 46.4514 46.011 49.7361 44.2499C47.1526 51.6322 40.5763 57.0112 32.0222 58.381ZM50.9032 37.8809H42.8849C42.8849 37.8762 42.8849 37.8669 42.8849 37.8599C42.9035 33.7529 41.8529 30.1048 40.3433 26.9623C43.4393 27.8871 46.7053 29.2522 50.1135 31.1764C50.647 33.0587 50.9381 35.0598 50.9381 37.1564C50.9358 37.401 50.9102 37.6386 50.9032 37.8809ZM42.0066 12.3187L44.6111 11.9413L45.7735 9.58379L46.9383 11.9413L49.5404 12.3187L47.6558 14.1544L48.0984 16.7472L45.7735 15.5242L43.4486 16.7472L43.8889 14.1544L42.0066 12.3187ZM37.5199 9.89828L39.5676 8.40969L41.6176 9.89828L40.8349 7.48952L42.8849 6.00093H40.3503L39.5676 3.59217L38.7849 6.00093H36.2526L38.3026 7.48952L37.5199 9.89828ZM37.669 6.45985H39.118L39.5653 5.08309L40.0125 6.45985H41.4615L40.2874 7.31014L40.7347 8.68691L39.5629 7.83662L38.3981 8.68924L38.8431 7.31247L37.669 6.45985ZM34.2422 2.08961L33.5201 1.56313H34.4146L34.6918 0.710514L34.9667 1.56313H35.8589L35.1368 2.08961L35.414 2.94223L34.6918 2.41575L33.965 2.94223L34.2422 2.08961ZM17.3902 2.61376L16.0134 1.61671H17.7117L18.2358 0L18.7623 1.61671H20.4606L19.0885 2.61376L19.6149 4.23047L18.2358 3.23109L16.8637 4.23047L17.3902 2.61376ZM19.9667 6.82327H21.9305L22.5362 4.95496L23.1442 6.82327H25.108L23.5216 7.97872L24.1273 9.84703L22.5362 8.69157L20.9474 9.84703L21.5531 7.97872L19.9667 6.82327ZM13.9611 12.7543L13.0572 12.0974H14.1778L14.5225 11.0304L14.8696 12.0974H15.9878L15.0816 12.7543L15.4287 13.8189L14.5225 13.1597L13.6163 13.8189L13.9611 12.7543ZM21.3854 11.2471L20.3767 11.9809L20.7611 13.1666L19.7524 12.4352L18.7414 13.1666L19.1281 11.9809L18.1194 11.2471H19.3703L19.7524 10.059L20.1391 11.2471H21.3854Z" fill="white"/>
</svg>
