<svg width="30" height="30" viewBox="0 0 30 30" fill="none" xmlns="http://www.w3.org/2000/svg">
<path d="M18.0571 6.5147C14.8701 3.32774 9.70167 3.32775 6.51471 6.51471C3.32774 9.70168 3.32774 14.8701 6.5147 18.0571C9.33793 20.8803 13.7165 21.199 16.8931 19.0201L20.8664 23.4645C21.5419 24.2231 22.7162 24.2543 23.4333 23.5372L23.5372 23.4333C24.2543 22.7162 24.2231 21.5419 23.4645 20.8664L19.0201 16.8931C21.2024 13.7131 20.8803 9.33794 18.0571 6.5147ZM16.0756 16.0756C13.9833 18.1679 10.5885 18.1679 8.49616 16.0756C6.40385 13.9833 6.40385 10.5885 8.49617 8.49617C10.5885 6.40386 13.9833 6.40386 16.0756 8.49616C18.1714 10.5919 18.1679 13.9833 16.0756 16.0756Z" fill="#A7A7A7"/>
</svg>
