<svg width="50" height="50" viewBox="0 0 50 50" fill="none" xmlns="http://www.w3.org/2000/svg">
<path d="M33.9734 19.9437V15.1359C33.9734 13.214 32.3703 11.7703 30.6078 11.7703H9.61562C7.69219 11.7703 6.25 13.2125 6.25 15.1359V35.0062C6.25 36.9281 7.85312 38.3718 9.61562 38.3718H30.6078C32.5297 38.3718 33.9734 36.9296 33.9734 35.0062V30.1984L43.7484 36.2875V13.8531C43.9078 13.8531 33.9734 19.9421 33.9734 19.9421V19.9437Z" fill="#FF6262"/>
<g clip-path="url(#clip0_368_118)">
<rect width="64.2128" height="6.78358" transform="matrix(0.704262 -0.70994 0.704262 0.70994 0 45.5872)" fill="black"/>
<rect width="65.5746" height="2.26119" rx="1.1306" transform="matrix(0.704262 -0.70994 0.704262 0.70994 1.12598 47.8574)" fill="#FF6262"/>
</g>
<defs>
<clipPath id="clip0_368_118">
<rect width="50" height="50" fill="white"/>
</clipPath>
</defs>
</svg>
