<svg width="100" height="100" viewBox="0 0 100 100" fill="none" xmlns="http://www.w3.org/2000/svg">
<path d="M67.9468 39.8874V30.2718C67.9468 26.428 64.7406 23.5405 61.2156 23.5405H19.2312C15.3844 23.5405 12.5 26.4249 12.5 30.2718V70.0124C12.5 73.8562 15.7062 76.7437 19.2312 76.7437H61.2156C65.0593 76.7437 67.9468 73.8593 67.9468 70.0124V60.3968L87.4968 72.5749V27.7062C87.8156 27.7062 67.9468 39.8843 67.9468 39.8843V39.8874Z" fill="white"/>
<g clip-path="url(#clip0_390_148)">
<rect width="128.426" height="13.5672" transform="matrix(0.704262 -0.70994 0.704262 0.70994 0 91.1743)" fill="black"/>
<path d="M4.46923 95.6011C3.88745 95.0147 3.88556 94.0644 4.465 93.4756L92.4479 4.06916C93.029 3.47866 93.9749 3.47484 94.5607 4.06064L95.9359 5.4359C96.523 6.02304 96.5252 6.97931 95.9408 7.56923L7.6584 96.6847C7.07508 97.2735 6.1286 97.2739 5.54489 96.6855L4.46923 95.6011Z" fill="white"/>
</g>
<defs>
<clipPath id="clip0_390_148">
<rect width="100" height="100" fill="white"/>
</clipPath>
</defs>
</svg>
