<svg width="50" height="50" viewBox="0 0 50 50" fill="none" xmlns="http://www.w3.org/2000/svg">
<path fill-rule="evenodd" clip-rule="evenodd" d="M27.7001 38.3V43.5H37.4001C38.3001 43.5 39.0001 44.2 39.0001 45.1V48H11V45.1C11 44.2 11.7 43.5 12.6 43.5H22.3V38.3C14.9 37 9.30005 30.5 9.30005 22.8V21C9.30005 20.2 9.90005 19.5 10.8 19.5C11.6 19.5 12.3 20.2 12.3 21V22.8C12.3 29.8 18 35.5 25.0001 35.5C32.0001 35.5 37.8001 29.8 37.8001 22.8V21C37.8001 20.2 38.4001 19.5 39.3001 19.5C40.1001 19.5 40.8001 20.2 40.8001 21V22.8C40.8001 30.5 35.1001 37 27.7001 38.3ZM25.0001 2C29.9001 2 34.0001 6 34.0001 11C34.0001 15.7 34.0001 17.5 34.0001 22.2C34.0001 27.2 29.9001 31.2 25.0001 31.2C20.1 31.2 16 27.2 16 22.2C16 17.5 16 15.7 16 11C16 6 20 2 25.0001 2Z" fill="#FF6262"/>
<rect x="2" y="44.1604" width="56.7955" height="6" transform="rotate(-45 2 44.1604)" fill="black"/>
<rect x="3" y="46.1604" width="58" height="2" rx="1" transform="rotate(-45 3 46.1604)" fill="#FF6262"/>
</svg>
